<svg width="159" height="126" viewBox="0 0 159 126" fill="none" xmlns="http://www.w3.org/2000/svg">
<path d="M1 1C1.17976 3.78014 3.2798 12.7291 13.7081 30.3866C22.5735 45.3978 39.3753 59.7468 56.2127 72.6904C70.0973 81.9436 85.2939 88.9053 104.928 95.0039C115.686 97.8997 128.058 100.391 140.805 102.958" stroke="white" stroke-width="2" stroke-linecap="round"/>
<path d="M147.864 87.0816C147.726 86.8551 147.504 86.6927 147.246 86.6301C146.988 86.5675 146.716 86.6099 146.49 86.7479C146.263 86.8859 146.101 87.1082 146.038 87.3659C145.976 87.6236 146.018 87.8957 146.156 88.1222C146.156 88.1222 146.156 88.1222 146.156 88.1222C146.566 88.7949 146.972 89.4653 147.379 90.1403C150.732 95.904 154.799 102.052 156.613 107.761L156.689 107.319C156.686 107.327 156.683 107.334 156.68 107.341C154.064 112.41 149.465 116.943 145.187 121.276C145.189 121.275 145.187 121.277 145.184 121.28C144.306 122.12 143.474 123.003 142.615 123.868C142.058 124.43 141.487 124.978 140.9 125.51C141.566 125.082 142.24 124.661 142.901 124.216C143.923 123.532 144.915 122.811 145.852 122.024C145.855 122.022 145.858 122.019 145.861 122.017C150.471 117.867 155.412 114.067 158.522 108.119C158.526 108.11 158.53 108.1 158.534 108.09L158.61 107.649C156.391 100.354 152.508 95.1153 149.092 89.108C148.684 88.43 148.276 87.7568 147.864 87.0816Z" fill="white"/>
</svg>
